<svg xmlns="http://www.w3.org/2000/svg" width="200" height="200" class="icon" viewBox="0 0 1024 1024"><path fill="#E29460" d="M256.16 959.368a63.96 63.96 0 0 0 63.96 63.96h575.64a63.96 63.96 0 0 0 63.96-63.96v-799.5H256.16z"/><path d="M895.76 991.348H320.12a63.96 63.96 0 0 1-63.96-63.96v31.98a63.96 63.96 0 0 0 63.96 63.96h575.64a63.96 63.96 0 0 0 63.96-63.96v-31.98a63.96 63.96 0 0 1-63.96 63.96"/><path fill="#434854" d="M256.16 351.748v-95.94H64.28a63.96 63.96 0 0 0-63.96 63.96v191.88a255.84 255.84 0 0 0 255.84 255.84v-95.94a159.9 159.9 0 0 1-159.9-159.9v-159.9z"/><path fill="#FFF" d="M639.92 287.788h-63.96a31.98 31.98 0 0 0-31.98 31.98v543.66a31.98 31.98 0 0 0 31.98 31.98h63.96a31.98 31.98 0 0 0 31.98-31.98v-543.66a31.98 31.98 0 0 0-31.98-31.98m191.88 0h-63.96a31.98 31.98 0 0 0-31.98 31.98v543.66a31.98 31.98 0 0 0 31.98 31.98h63.96a31.98 31.98 0 0 0 31.98-31.98v-543.66a31.98 31.98 0 0 0-31.98-31.98m-383.76 0h-63.96a31.98 31.98 0 0 0-31.98 31.98v543.66a31.98 31.98 0 0 0 31.98 31.98h63.96a31.98 31.98 0 0 0 31.98-31.98v-543.66a31.98 31.98 0 0 0-31.98-31.98"/><path fill="#EAEAEA" d="M927.74 31.948a63.64 63.64 0 0 0-44.26 17.94 95.52 95.52 0 0 0-83.66-49.92 95.75 95.75 0 0 0-92.262 70.996 95.3 95.3 0 0 0-35.658-7.036c-24.976 0-47.522 9.818-64.632 25.456a63.77 63.77 0 0 0-63.288-57.436c-7.611 0-14.807 1.567-21.586 3.998A95.46 95.46 0 0 0 448.04-.032a95.844 95.844 0 0 0-93.286 74.258 63.77 63.77 0 0 0-34.634-10.298c-25.968 0-48.194 15.51-58.204 37.736a63.86 63.86 0 0 0-37.736 58.204v31.98a31.98 31.98 0 1 0 63.96 0v-31.98h31.98a31.98 31.98 0 1 0 63.96 0h40.838c11.097 19.06 31.469 31.98 55.102 31.98 11.705 0 22.546-3.358 31.98-8.858v104.798a31.98 31.98 0 1 0 63.96 0v-127.92h31.98a63.96 63.96 0 0 0 63.96 63.96 63.736 63.736 0 0 0 63.289-57.404 95.3 95.3 0 0 0 64.631 25.424c28.334 0 53.503-12.504 71.06-31.98h56.86v255.84a31.98 31.98 0 1 0 63.96 0v-319.8a63.96 63.96 0 0 0-63.96-63.96"/><path d="M959.72 447.688a31.98 31.98 0 0 1-31.98-31.98v31.98a31.98 31.98 0 1 0 63.96 0v-31.98a31.98 31.98 0 0 1-31.98 31.98m-703.56-223.86a31.98 31.98 0 0 1-31.98-31.98v31.98a31.98 31.98 0 1 0 63.96 0v-31.98a31.98 31.98 0 0 1-31.98 31.98M512 182.99a63.2 63.2 0 0 1-31.98 8.858 63.7 63.7 0 0 1-55.102-31.98H384.08a31.98 31.98 0 1 1-63.96 0h-31.98v31.98h31.98a31.98 31.98 0 1 0 63.96 0h40.838c11.097 19.06 31.469 31.98 55.102 31.98 11.705 0 22.546-3.358 31.98-8.858zm415.74-23.122h-56.86c-17.557 19.476-42.726 31.98-71.06 31.98a95.5 95.5 0 0 1-64.631-25.424 63.736 63.736 0 0 1-63.289 57.404 63.96 63.96 0 0 1-63.96-63.96h-31.98v31.98h31.98a63.96 63.96 0 0 0 63.96 63.96 63.736 63.736 0 0 0 63.289-57.404 95.3 95.3 0 0 0 64.631 25.424c28.334 0 53.503-12.504 71.06-31.98h56.86zm-383.76 159.9a31.98 31.98 0 0 1-31.98-31.98v31.98a31.98 31.98 0 1 0 63.96 0v-31.98a31.98 31.98 0 0 1-31.98 31.98"/><path d="M224.18 255.808h31.98v95.94h-31.98zm0 509.474c10.49 1.31 21.107 2.206 31.98 2.206v-95.94c-10.97 0-21.65-1.119-31.98-3.23z"/></svg>